<?xml version="1.0" standalone="no"?>
<!DOCTYPE svg PUBLIC "-//W3C//DTD SVG 20010904//EN"
 "http://www.w3.org/TR/2001/REC-SVG-20010904/DTD/svg10.dtd">
<svg version="1.0" xmlns="http://www.w3.org/2000/svg"
 width="12" height="12" viewBox="0 0 12 12"
 preserveAspectRatio="xMidYMid meet">

<g transform="translate(0.000000,910.000000) scale(0.100000,-0.100000)"
fill="#000000" stroke="none">
<path d="M2780 9073 c-130 -14 -324 -65 -473 -124 -490 -195 -883 -551 -1110
-1005 -166 -332 -248 -735 -218 -1074 27 -305 104 -557 276 -900 l64 -127 -77
-64 c-102 -85 -320 -304 -408 -409 -328 -391 -555 -812 -703 -1303 -88 -289
-123 -530 -125 -857 l-1 -195 35 -65 c49 -90 142 -183 200 -199 116 -31 225
-33 1857 -38 l1652 -5 -105 -140 c-432 -572 -648 -1092 -740 -1778 -22 -166
-22 -385 0 -469 32 -123 105 -219 201 -262 93 -41 123 -42 2715 -44 1367 -1
2576 1 2687 5 201 7 203 7 267 39 124 61 214 194 223 330 13 179 -33 608 -88
826 -121 482 -355 972 -627 1310 -145 181 -424 472 -556 581 l-50 40 61 110
c339 608 380 1268 116 1873 -162 372 -410 674 -732 890 -220 148 -499 273
-731 327 -91 22 -546 30 -732 15 -177 -16 -279 -41 -490 -125 -92 -36 -176
-66 -187 -66 -17 0 -14 14 31 153 70 217 96 340 110 516 45 599 -155 1169
-563 1606 -312 333 -804 580 -1248 625 -96 9 -451 12 -531 3z m492 -874 c197
-26 425 -139 600 -299 138 -126 282 -352 336 -530 71 -232 67 -515 -10 -745
-114 -345 -412 -640 -753 -748 -153 -48 -231 -60 -390 -60 -265 0 -469 62
-695 211 -250 165 -454 481 -500 772 -14 94 -12 310 5 420 35 235 163 469 358
657 294 282 609 379 1049 322z m2965 -2718 c311 -64 612 -297 776 -601 94
-174 140 -361 140 -570 0 -254 -59 -452 -198 -660 -151 -226 -373 -396 -618
-474 -173 -54 -216 -61 -397 -60 -150 1 -176 4 -280 31 -140 37 -244 79 -349
143 -186 111 -337 272 -434 460 -104 201 -132 322 -131 565 0 148 3 185 26
283 30 125 92 277 149 361 180 268 527 503 798 541 112 15 401 5 518 -19z
m-4194 -291 c331 -181 768 -277 1141 -250 251 18 437 60 676 154 141 56 180
70 180 64 0 -2 -20 -64 -45 -138 -87 -258 -113 -389 -122 -615 -9 -234 24
-494 92 -726 13 -46 25 -88 25 -92 0 -11 -3028 -3 -3057 7 -13 5 -23 15 -23
23 0 8 16 74 36 147 126 468 407 939 741 1244 102 93 261 222 275 222 5 0 41
-18 81 -40z m2978 -2739 c193 -93 304 -134 455 -166 200 -44 417 -55 670 -35
300 24 443 65 786 227 l117 55 108 -88 c340 -276 607 -633 774 -1035 73 -174
120 -315 147 -437 18 -83 18 -94 5 -99 -17 -7 -4284 4 -4290 11 -6 5 59 238
95 346 120 352 325 691 582 963 115 121 358 337 380 337 4 0 81 -36 171 -79z"/>
</g>
</svg>
