<?xml version="1.0" standalone="no"?>
<!DOCTYPE svg PUBLIC "-//W3C//DTD SVG 20010904//EN"
 "http://www.w3.org/TR/2001/REC-SVG-20010904/DTD/svg10.dtd">
<svg version="1.0" xmlns="http://www.w3.org/2000/svg"
 width="12t" height="12" viewBox="0 0 12 12"
 preserveAspectRatio="xMidYMid meet">

<g transform="translate(0.000000,225.000000) scale(0.100000,-0.100000)"
fill="#000000" stroke="none">
<path d="M508 1730 c-76 -23 -137 -90 -153 -168 -10 -50 12 -125 51 -170 118
-138 347 -66 362 114 12 150 -122 266 -260 224z"/>
<path d="M1615 1725 c-204 -78 -165 -385 51 -403 108 -9 200 56 224 158 14 58
7 100 -26 157 -46 80 -162 121 -249 88z"/>
<path d="M1031 1384 c-34 -17 -62 -41 -79 -67 -23 -35 -27 -51 -27 -117 0 -66
4 -82 27 -117 33 -50 113 -93 173 -93 60 0 140 43 173 93 23 35 27 51 27 117
0 66 -4 82 -27 117 -33 50 -113 93 -173 93 -24 0 -63 -11 -94 -26z"/>
<path d="M455 1250 c-117 -25 -277 -105 -301 -152 -10 -19 -14 -63 -14 -143
l0 -115 251 0 251 0 40 34 c35 30 148 92 200 109 16 6 15 11 -12 54 -32 51
-50 102 -50 144 0 25 -6 28 -82 49 -90 25 -219 34 -283 20z"/>
<path d="M1565 1245 c-97 -21 -135 -41 -135 -70 0 -37 -29 -116 -57 -153 -22
-30 -23 -33 -6 -38 58 -20 164 -77 200 -108 l41 -36 251 0 251 0 0 115 c0 137
-8 159 -77 203 -133 85 -321 120 -468 87z"/>
<path d="M970 909 c-79 -22 -193 -76 -229 -111 -34 -31 -41 -61 -41 -179 l0
-109 425 0 425 0 0 113 c0 141 -11 166 -98 217 -132 80 -338 109 -482 69z"/>
</g>
</svg>
